<svg xmlns="http://www.w3.org/2000/svg" width="484.357" height="373.635" viewBox="0 0 484.357 373.635"><g id="Group_1165927" data-name="Group 1165927" transform="translate(0 -51.488)"><g id="Group_1165908" data-name="Group 1165908" transform="translate(0 51.488)"><g id="Group_1165898" data-name="Group 1165898"><g id="Group_1165867" data-name="Group 1165867" transform="translate(51.681)"><rect id="Rectangle_225365" data-name="Rectangle 225365" width="81.768" height="310.807" transform="translate(181.004 62.761)" fill="#f0e3c7"></rect><rect id="Rectangle_225366" data-name="Rectangle 225366" width="5.113" height="5.113" transform="translate(237.607 65.362)" fill="#c7af9d"></rect><rect id="Rectangle_225367" data-name="Rectangle 225367" width="5.113" height="5.113" transform="translate(245.735 65.362)" fill="#c7af9d"></rect><rect id="Rectangle_225368" data-name="Rectangle 225368" width="5.113" height="5.113" transform="translate(253.863 65.362)" fill="#c7af9d"></rect><rect id="Rectangle_225369" data-name="Rectangle 225369" width="86.062" height="4.914" transform="translate(178.857 57.847)" fill="#eb3127"></rect><rect id="Rectangle_225370" data-name="Rectangle 225370" width="60.643" height="7.782" transform="translate(191.567 50.065)" fill="#f5f0e4"></rect><rect id="Rectangle_225371" data-name="Rectangle 225371" width="15.167" height="18.891" transform="translate(214.304 31.175)" fill="#f0e3c7"></rect><rect id="Rectangle_225372" data-name="Rectangle 225372" width="6.419" height="3.892" transform="translate(174.585 122.244)" fill="#f0dfbb"></rect><rect id="Rectangle_225373" data-name="Rectangle 225373" width="2.579" height="11.281" transform="translate(178.425 126.135)" fill="#f0dfbb"></rect><rect id="Rectangle_225374" data-name="Rectangle 225374" width="6.419" height="3.892" transform="translate(174.585 149.459)" fill="#f0dfbb"></rect><rect id="Rectangle_225375" data-name="Rectangle 225375" width="2.579" height="11.281" transform="translate(178.425 153.351)" fill="#f0dfbb"></rect><rect id="Rectangle_225376" data-name="Rectangle 225376" width="6.419" height="3.892" transform="translate(174.585 176.937)" fill="#f0dfbb"></rect><rect id="Rectangle_225377" data-name="Rectangle 225377" width="2.579" height="11.281" transform="translate(178.425 180.829)" fill="#f0dfbb"></rect><rect id="Rectangle_225378" data-name="Rectangle 225378" width="6.419" height="3.892" transform="translate(174.585 204.284)" fill="#f0dfbb"></rect><rect id="Rectangle_225379" data-name="Rectangle 225379" width="2.579" height="11.281" transform="translate(178.425 208.176)" fill="#f0dfbb"></rect><g id="Group_1165862" data-name="Group 1165862" transform="translate(198.147 122.244)"><rect id="Rectangle_225382" data-name="Rectangle 225382" width="23.741" height="15.173" fill="#3a9ce7"></rect><rect id="Rectangle_225383" data-name="Rectangle 225383" width="23.741" height="6.89" transform="translate(0 17.815)" fill="#3a9ce7"></rect><rect id="Rectangle_225384" data-name="Rectangle 225384" width="23.741" height="15.173" transform="translate(0 27.347)" fill="#3a9ce7"></rect><rect id="Rectangle_225385" data-name="Rectangle 225385" width="23.741" height="6.89" transform="translate(0 45.162)" fill="#3a9ce7"></rect><rect id="Rectangle_225386" data-name="Rectangle 225386" width="23.741" height="15.173" transform="translate(0 54.694)" fill="#3a9ce7"></rect><rect id="Rectangle_225387" data-name="Rectangle 225387" width="23.741" height="6.89" transform="translate(0 72.508)" fill="#3a9ce7"></rect><rect id="Rectangle_225388" data-name="Rectangle 225388" width="23.741" height="15.173" transform="translate(0 82.041)" fill="#3a9ce7"></rect></g><g id="Group_1165863" data-name="Group 1165863" transform="translate(198.147 122.244)" style="mix-blend-mode: overlay;isolation: isolate"><path id="Path_1670702" data-name="Path 1670702" d="M255.254,165.061H232.107v15.172h7.975Z" transform="translate(-232.107 -165.061)" fill="#3a9ce7"></path><path id="Path_1670703" data-name="Path 1670703" d="M242.4,205.462h12.659V192.8Z" transform="translate(-231.321 -162.943)" fill="#3a9ce7"></path><path id="Path_1670704" data-name="Path 1670704" d="M233.547,213.909h22.192v-6.89h-15.3Z" transform="translate(-231.997 -161.858)" fill="#3a9ce7"></path><path id="Path_1670705" data-name="Path 1670705" d="M255.848,224.859v-8.984H232.107v15.173H249.66Z" transform="translate(-232.107 -161.182)" fill="#3a9ce7"></path><path id="Path_1670706" data-name="Path 1670706" d="M247.018,232.426h-14.91v6.89h8.02Z" transform="translate(-232.107 -159.918)" fill="#3a9ce7"></path></g><g id="Group_1165864" data-name="Group 1165864" transform="translate(198.147 122.244)" opacity="0.7" style="mix-blend-mode: multiply;isolation: isolate"><path id="Path_1670707" data-name="Path 1670707" d="M232.107,218.352h21.263v12.7h2.477V215.875H232.107Z" transform="translate(-232.107 -161.181)" fill="#9898a3"></path><path id="Path_1670708" data-name="Path 1670708" d="M232.107,243.759h21.263v12.7h2.477V241.282H232.107Z" transform="translate(-232.107 -159.241)" fill="#9898a3"></path><path id="Path_1670709" data-name="Path 1670709" d="M232.107,234.9h21.263v4.412h2.477v-6.89H232.107Z" transform="translate(-232.107 -159.917)" fill="#9898a3"></path><path id="Path_1670710" data-name="Path 1670710" d="M232.107,209.5h21.263v4.412h2.477v-6.89H232.107Z" transform="translate(-232.107 -161.857)" fill="#9898a3"></path><path id="Path_1670711" data-name="Path 1670711" d="M232.107,165.061v2.477h21.263v12.7h2.477V165.061Z" transform="translate(-232.107 -165.061)" fill="#9898a3"></path><path id="Path_1670712" data-name="Path 1670712" d="M232.107,192.945h21.263v12.7h2.477V190.468H232.107Z" transform="translate(-232.107 -163.121)" fill="#9898a3"></path><path id="Path_1670713" data-name="Path 1670713" d="M232.107,184.089h21.263V188.5h2.477v-6.89H232.107Z" transform="translate(-232.107 -163.797)" fill="#9898a3"></path></g><g id="Group_1165866" data-name="Group 1165866" transform="translate(214.82)"><path id="Path_1670714" data-name="Path 1670714" d="M256.541,82.052l-.973-22.565h-2.494L252.1,82.052Z" transform="translate(-247.253 -50.877)" fill="#34495e"></path><path id="Path_1670715" data-name="Path 1670715" d="M257.743,58.321a3.342,3.342,0,1,1-3.342-3.342A3.342,3.342,0,0,1,257.743,58.321Z" transform="translate(-247.333 -51.221)" fill="#ffd900"></path><g id="Group_1165865" data-name="Group 1165865"><path id="Path_1670716" data-name="Path 1670716" d="M254.854,65.687l-.116-3.106a4.092,4.092,0,0,0,.562-.059l.542,3.06A7.414,7.414,0,0,1,254.854,65.687Zm-3.823-.94a7.2,7.2,0,0,1-.824-.552l1.9-2.458a4.073,4.073,0,0,0,.47.315Zm8.347-.9-2.084-2.307a4.077,4.077,0,0,0,.39-.406l2.384,1.994A7.244,7.244,0,0,1,259.378,63.849Zm-11.5-2.826a7.246,7.246,0,0,1-.279-.955l3.035-.665a4.025,4.025,0,0,0,.159.542Zm13.791-1.49-3.079-.427a4.09,4.09,0,0,0,.039-.563l3.108-.093v.119A7.336,7.336,0,0,1,261.667,59.533Zm-10.891-2.35-2.928-1.045a7.2,7.2,0,0,1,.4-.915L251,56.67A3.766,3.766,0,0,0,250.777,57.183Zm7.216-.817a4.123,4.123,0,0,0-.337-.453l2.358-2.024a7.163,7.163,0,0,1,.594.8Zm-5.455-1.311-1.576-2.679a7.294,7.294,0,0,1,.89-.443l1.189,2.872A4.143,4.143,0,0,0,252.537,55.055Zm3.259-.37a3.842,3.842,0,0,0-.544-.13l.508-3.067a7.059,7.059,0,0,1,.972.232Z" transform="translate(-247.597 -51.488)" fill="#ffd900"></path></g></g></g><g id="Group_1165868" data-name="Group 1165868" transform="translate(0 291.326)"><rect id="Rectangle_225389" data-name="Rectangle 225389" width="160.352" height="82.242" transform="translate(0 0)" fill="#f0dfbb"></rect><path id="Path_1670717" data-name="Path 1670717" d="M0,326.813v77.223H108.424V326.813Zm20.127,75.32H3.647V388.973h16.48Zm0-15.065H3.647V373.91h16.48Zm0-15.063H3.647V358.847h16.48Zm0-15.064H3.647V343.782h16.48Zm0-15.065H3.647V328.718h16.48Zm20.956,60.256H24.6V388.973H41.083Zm0-15.065H24.6V373.91H41.083Zm0-15.063H24.6V358.847H41.083Zm0-15.064H24.6V343.782H41.083Zm0-15.065H24.6V328.718H41.083Zm20.955,60.256H45.559V388.973h16.48Zm0-15.065H45.559V373.91h16.48Zm0-15.063H45.559V358.847h16.48Zm0-15.064H45.559V343.782h16.48Zm0-15.065H45.559V328.718h16.48Zm20.954,60.256H66.514V388.973H82.993Zm0-15.065H66.514V373.91H82.993Zm0-15.063H66.514V358.847H82.993Zm0-15.064H66.514V343.782H82.993Zm0-15.065H66.514V328.718H82.993Zm20.955,60.256H87.468V388.973h16.48Zm0-15.065H87.468V373.91h16.48Zm0-15.063H87.468V358.847h16.48Zm0-15.064H87.468V343.782h16.48Zm0-15.065H87.468V328.718h16.48Z" transform="translate(0 -321.794)" fill="#9898a3" opacity="0.2" style="mix-blend-mode: multiply;isolation: isolate"></path><rect id="Rectangle_225390" data-name="Rectangle 225390" width="160.352" height="5.021" transform="translate(0 3.81)" fill="#9898a3" opacity="0.7" style="mix-blend-mode: multiply;isolation: isolate"></rect><rect id="Rectangle_225391" data-name="Rectangle 225391" width="160.354" height="5.016" fill="#eb3127"></rect><rect id="Rectangle_225392" data-name="Rectangle 225392" width="33.358" height="5.021" transform="translate(50.851 0)" fill="#9898a3" opacity="0.7" style="mix-blend-mode: multiply;isolation: isolate"></rect></g><g id="Group_1165869" data-name="Group 1165869" transform="translate(157.779 259.878)"><rect id="Rectangle_225393" data-name="Rectangle 225393" width="221.668" height="113.69" fill="#f0dfbb"></rect><path id="Path_1670718" data-name="Path 1670718" d="M146.588,299.379V406.13H296.47V299.379ZM174.412,403.5H151.629V385.308h22.783Zm0-20.825H151.629V364.485h22.783Zm0-20.823H151.629v-18.19h22.783Zm0-20.823H151.629V322.836h22.783Zm0-20.826H151.629V302.013h22.783Zm28.969,83.3H180.6V385.308H203.38Zm0-20.825H180.6V364.485H203.38Zm0-20.823H180.6v-18.19H203.38Zm0-20.823H180.6V322.836H203.38Zm0-20.826H180.6V302.013H203.38Zm28.969,83.3H209.566V385.308h22.783Zm0-20.825H209.566V364.485h22.783Zm0-20.823H209.566v-18.19h22.783Zm0-20.823H209.566V322.836h22.783Zm0-20.826H209.566V302.013h22.783Zm28.966,83.3H238.536V385.308h22.779Zm0-20.825H238.536V364.485h22.779Zm0-20.823H238.536v-18.19h22.779Zm0-20.823H238.536V322.836h22.779Zm0-20.826H238.536V302.013h22.779Zm28.97,83.3H267.5V385.308h22.783Zm0-20.825H267.5V364.485h22.783Zm0-20.823H267.5v-18.19h22.783Zm0-20.823H267.5V322.836h22.783Zm0-20.826H267.5V302.013h22.783Z" transform="translate(-146.588 -292.44)" fill="#9898a3" opacity="0.2" style="mix-blend-mode: multiply;isolation: isolate"></path><rect id="Rectangle_225394" data-name="Rectangle 225394" width="221.668" height="6.941" transform="translate(0 5.268)" fill="#9898a3" opacity="0.7" style="mix-blend-mode: multiply;isolation: isolate"></rect><rect id="Rectangle_225395" data-name="Rectangle 225395" width="221.668" height="6.941" fill="#eb3127"></rect></g><path id="Path_1670719" data-name="Path 1670719" d="M386.995,187.655h3.844v-8.648h-3.844V156.954h-2.449v3.477H297.858v-3.477H275.833v-7.468h22.024v-3.58H272.525v11.048H248.153v22.053h-4.719v8.648h4.719v18.567h-4.719v6.054h4.719v18.567h-4.719V236.9h4.719v18.4h-4.719v6.054h4.719v18.567h-4.719v6.054h4.719l-26.709,18.567h-4.719V310.6h4.719v18.567h-4.719v6.054h4.719v18.567h-4.719v6.054h4.719v18.567h-4.719v6.054h4.719v33.388H386.995V384.459h3.844v-6.054h-3.844V359.838h3.844v-6.054h-3.844V335.218h3.844v-6.054h-3.844V310.6h3.844v-6.054h-3.844V285.976h3.844v-6.054h-3.844V261.355h3.844V255.3h-3.844V236.9h3.844v-6.054h-3.844V212.276h3.844v-6.054h-3.844Z" transform="translate(16.546 -44.279)" fill="#9898a3" opacity="0.7" style="mix-blend-mode: multiply;isolation: isolate"></path><g id="Group_1165875" data-name="Group 1165875" transform="translate(288.546 101.627)"><rect id="Rectangle_225396" data-name="Rectangle 225396" width="138.842" height="230.193" transform="translate(4.719 41.749)" fill="#bda88e"></rect><g id="Group_1165870" data-name="Group 1165870" transform="translate(31.098 246.182)"><path id="Path_1670720" data-name="Path 1670720" d="M297,374.91c0,.167-.025.329-.025.5v24.921h34.542V375.407c0-.168-.02-.33-.025-.5Z" transform="translate(-296.971 -374.604)" fill="#ecf0f1"></path><path id="Path_1670721" data-name="Path 1670721" d="M299.117,374.91c-.005.167-.026.329-.026.5v24.921h29.978V375.407c0-.168-.02-.33-.026-.5Z" transform="translate(-296.809 -374.604)" fill="#2980b9"></path><path id="Path_1670722" data-name="Path 1670722" d="M299.117,374.91c-.005.167-.026.329-.026.5v19.762c7.071-7.053,14.444-13.834,22.016-20.259Z" transform="translate(-296.809 -374.604)" fill="#3498db"></path><rect id="Rectangle_225397" data-name="Rectangle 225397" width="34.542" height="2.241" fill="#ecf0f1"></rect><path id="Path_1670723" data-name="Path 1670723" d="M309.584,390.079c0,1.9.558,3.449,1.246,3.449s1.245-1.545,1.245-3.449-.558-3.449-1.245-3.449S309.584,388.175,309.584,390.079Z" transform="translate(-296.008 -373.709)" fill="#f1c40f"></path><path id="Path_1670724" data-name="Path 1670724" d="M314.135,390.079c0,1.9.558,3.449,1.245,3.449s1.246-1.545,1.246-3.449-.558-3.449-1.246-3.449S314.135,388.175,314.135,390.079Z" transform="translate(-295.661 -373.709)" fill="#f1c40f"></path></g><rect id="Rectangle_225398" data-name="Rectangle 225398" width="138.842" height="22.053" transform="translate(4.719 11.048)" fill="#f5f0e4"></rect><rect id="Rectangle_225399" data-name="Rectangle 225399" width="5.113" height="5.113" transform="translate(116.977 15.809)" fill="#c7af9d"></rect><rect id="Rectangle_225400" data-name="Rectangle 225400" width="5.113" height="5.113" transform="translate(125.106 15.809)" fill="#c7af9d"></rect><rect id="Rectangle_225401" data-name="Rectangle 225401" width="5.113" height="5.113" transform="translate(133.234 15.809)" fill="#c7af9d"></rect><g id="Group_1165871" data-name="Group 1165871" transform="translate(4.719 41.749)"><rect id="Rectangle_225402" data-name="Rectangle 225402" width="117.654" height="19.63" transform="translate(21.188)" fill="#3a9ce7"></rect><rect id="Rectangle_225403" data-name="Rectangle 225403" width="117.654" height="22.005" transform="translate(21.188 22.752)" fill="#3096db"></rect><rect id="Rectangle_225404" data-name="Rectangle 225404" width="117.654" height="21.335" transform="translate(21.188 47.879)" fill="#3698e3"></rect><rect id="Rectangle_225405" data-name="Rectangle 225405" width="117.654" height="22.005" transform="translate(21.188 72.336)" fill="#30a2e5"></rect><rect id="Rectangle_225406" data-name="Rectangle 225406" width="117.654" height="20.665" transform="translate(21.188 97.463)" fill="#3c96dd"></rect><rect id="Rectangle_225407" data-name="Rectangle 225407" width="117.654" height="21.335" transform="translate(21.188 121.25)" fill="#3c9ee1"></rect><rect id="Rectangle_225408" data-name="Rectangle 225408" width="117.654" height="22.34" transform="translate(21.188 169.494)" fill="#2e9ae3"></rect><rect id="Rectangle_225409" data-name="Rectangle 225409" width="117.654" height="20.665" transform="translate(21.188 145.707)" fill="#3092e3"></rect><rect id="Rectangle_225410" data-name="Rectangle 225410" width="13.837" height="19.63" fill="#309ce5"></rect><rect id="Rectangle_225411" data-name="Rectangle 225411" width="13.837" height="22.005" transform="translate(0 22.752)" fill="#3696e5"></rect><rect id="Rectangle_225412" data-name="Rectangle 225412" width="13.837" height="21.335" transform="translate(0 47.879)" fill="#3096e1"></rect><rect id="Rectangle_225413" data-name="Rectangle 225413" width="13.837" height="22.005" transform="translate(0 72.336)" fill="#3696db"></rect><rect id="Rectangle_225414" data-name="Rectangle 225414" width="13.837" height="20.665" transform="translate(0 97.463)" fill="#3a94db"></rect><rect id="Rectangle_225415" data-name="Rectangle 225415" width="13.837" height="21.335" transform="translate(0 121.25)" fill="#3094e1"></rect><rect id="Rectangle_225416" data-name="Rectangle 225416" width="13.837" height="20.665" transform="translate(0 145.707)" fill="#309ae9"></rect><rect id="Rectangle_225417" data-name="Rectangle 225417" width="13.837" height="22.34" transform="translate(0 169.494)" fill="#3a9ae3"></rect></g><g id="Group_1165872" data-name="Group 1165872" transform="translate(4.719 41.749)" opacity="0.5" style="mix-blend-mode: overlay;isolation: isolate"><path id="Path_1670725" data-name="Path 1670725" d="M387.34,184.694H292.148v19.63h75.563Z" transform="translate(-270.96 -184.694)" fill="#3a9ce7"></path><path id="Path_1670726" data-name="Path 1670726" d="M364.589,205.831H292.148v22.005h50.435Z" transform="translate(-270.96 -183.08)" fill="#3096db"></path><path id="Path_1670727" data-name="Path 1670727" d="M339.461,229.176H292.148v21.335h25.978Z" transform="translate(-270.96 -181.298)" fill="#3698e3"></path><path id="Path_1670728" data-name="Path 1670728" d="M403.442,245.943V229.176h-6.669l-21.334,21.335h23.435Z" transform="translate(-264.601 -181.298)" fill="#3698e3"></path><path id="Path_1670729" data-name="Path 1670729" d="M315,251.9H292.148V273.9H293Z" transform="translate(-270.96 -179.563)" fill="#30a2e5"></path><path id="Path_1670730" data-name="Path 1670730" d="M397.535,251.9H374.1l-22,22h23.435Z" transform="translate(-266.383 -179.563)" fill="#30a2e5"></path><path id="Path_1670731" data-name="Path 1670731" d="M374.1,275.243H350.659l-20.665,20.666H353.43Z" transform="translate(-268.07 -177.78)" fill="#3c96dd"></path><path id="Path_1670732" data-name="Path 1670732" d="M352.043,297.343H328.607l-21.335,21.335h23.436Z" transform="translate(-269.805 -176.093)" fill="#3c9ee1"></path><path id="Path_1670733" data-name="Path 1670733" d="M304.953,342.165H292.148v12.805Z" transform="translate(-270.96 -172.671)" fill="#2e9ae3"></path><path id="Path_1670734" data-name="Path 1670734" d="M328.74,320.066H305.3l-13.156,13.156v7.508h15.927Z" transform="translate(-270.96 -174.358)" fill="#3092e3"></path><rect id="Rectangle_225418" data-name="Rectangle 225418" width="13.837" height="19.63" fill="#309ce5"></rect><rect id="Rectangle_225419" data-name="Rectangle 225419" width="13.837" height="22.005" transform="translate(0 22.752)" fill="#3696e5"></rect><rect id="Rectangle_225420" data-name="Rectangle 225420" width="13.837" height="21.335" transform="translate(0 47.879)" fill="#3096e1"></rect><rect id="Rectangle_225421" data-name="Rectangle 225421" width="13.837" height="22.005" transform="translate(0 72.336)" fill="#3696db"></rect><path id="Path_1670735" data-name="Path 1670735" d="M286.3,280.324v-5.08H272.463v18.917Z" transform="translate(-272.463 -177.78)" fill="#3a94db"></path><path id="Path_1670736" data-name="Path 1670736" d="M286.3,362.322V342.165h-3.28l-10.558,10.558v11.782h11.654Z" transform="translate(-272.463 -172.671)" fill="#3a9ae3"></path></g><path id="Path_1670737" data-name="Path 1670737" d="M411.3,196.8V176.659H272.463V196.8h9.076v11.836h-9.076v6.054h9.076v18.567h-9.076v6.053h9.076v18.4h-9.076v6.053h9.076v18.567h-9.076v6.053h9.076v18.568h-9.076v6.053h9.076v18.567h-9.076v6.053h9.076V356.2h-9.076v6.054h9.076v18.567h-9.076v6.053h9.076V415.5h7.351V386.872h75.338V415.5h24.617V386.872h21.542v-6.053H388.845V362.252h21.542V356.2H388.845V337.63H411.3v-6.053H388.845V313.01H411.3v-6.053H388.845V288.388H411.3v-6.053H388.845V263.768H411.3v-6.053H388.845v-18.4H411.3v-6.053H388.845V214.69H411.3v-6.054H388.845V196.8ZM364.228,380.819H288.89V362.252h75.338Zm0-24.621H288.89V337.63h75.338Zm0-24.62H288.89V313.01h75.338Zm0-24.62H288.89V288.388h75.338Zm0-24.621H288.89V263.768h75.338Zm0-24.62H288.89v-18.4h75.338Zm0-24.458H288.89V214.69h75.338Zm0-24.621H288.89V196.8h75.338Z" transform="translate(-267.744 -143.558)" fill="#9898a3" opacity="0.7" style="mix-blend-mode: multiply;isolation: isolate"></path><rect id="Rectangle_225422" data-name="Rectangle 225422" width="7.351" height="230.193" transform="translate(18.556 41.749)" fill="#f5f0e4"></rect><rect id="Rectangle_225423" data-name="Rectangle 225423" width="24.617" height="230.193" transform="translate(125.862 271.942) rotate(180)" fill="#f5f0e4"></rect><rect id="Rectangle_225424" data-name="Rectangle 225424" width="147.405" height="8.648" transform="translate(0 33.101)" fill="#eb3127"></rect><rect id="Rectangle_225425" data-name="Rectangle 225425" width="147.405" height="6.054" transform="translate(0 109.395)" fill="#f5f0e4"></rect><rect id="Rectangle_225426" data-name="Rectangle 225426" width="147.405" height="6.054" transform="translate(0 134.016)" fill="#f5f0e4"></rect><rect id="Rectangle_225427" data-name="Rectangle 225427" width="147.405" height="6.054" transform="translate(0 158.637)" fill="#f5f0e4"></rect><rect id="Rectangle_225428" data-name="Rectangle 225428" width="147.405" height="6.054" transform="translate(0 183.258)" fill="#f5f0e4"></rect><rect id="Rectangle_225429" data-name="Rectangle 225429" width="147.405" height="6.054" transform="translate(0 60.316)" fill="#f5f0e4"></rect><rect id="Rectangle_225430" data-name="Rectangle 225430" width="147.405" height="6.054" transform="translate(0 84.937)" fill="#f5f0e4"></rect><rect id="Rectangle_225431" data-name="Rectangle 225431" width="147.405" height="6.054" transform="translate(0 207.879)" fill="#f5f0e4"></rect><rect id="Rectangle_225432" data-name="Rectangle 225432" width="147.405" height="6.054" transform="translate(0 232.5)" fill="#f5f0e4"></rect><g id="Group_1165874" data-name="Group 1165874" transform="translate(29.09)"><g id="Group_1165873" data-name="Group 1165873" transform="translate(0 3.112)"><rect id="Rectangle_225433" data-name="Rectangle 225433" width="3.309" height="7.936" transform="translate(25.384)" fill="#2a3c59"></rect><rect id="Rectangle_225434" data-name="Rectangle 225434" width="3.309" height="7.936" transform="translate(50.768)" fill="#2a3c59"></rect><rect id="Rectangle_225435" data-name="Rectangle 225435" width="3.309" height="7.936" fill="#2a3c59"></rect><rect id="Rectangle_225436" data-name="Rectangle 225436" width="3.308" height="7.936" transform="translate(76.151)" fill="#2a3c59"></rect><rect id="Rectangle_225437" data-name="Rectangle 225437" width="3.309" height="7.936" transform="translate(101.535)" fill="#2a3c59"></rect></g><path id="Path_1670738" data-name="Path 1670738" d="M404.869,145.906H295.106v3.58H404.869a1.51,1.51,0,0,0,1.523-1.5V147.4A1.509,1.509,0,0,0,404.869,145.906Z" transform="translate(-295.106 -145.906)" fill="#33496d"></path></g></g><g id="Group_1165883" data-name="Group 1165883" transform="translate(69.918 231.867)"><rect id="Rectangle_225438" data-name="Rectangle 225438" width="158.84" height="45.222" transform="translate(9.718 96.48)" fill="#a3968b" opacity="0.7" style="mix-blend-mode: multiply;isolation: isolate"></rect><g id="Group_1165876" data-name="Group 1165876" transform="translate(18.033 111.905)"><rect id="Rectangle_225439" data-name="Rectangle 225439" width="21.03" height="29.797" fill="#ecf0f1"></rect><rect id="Rectangle_225440" data-name="Rectangle 225440" width="16.376" height="27.513" transform="translate(2.327 2.283)" fill="#2980b9"></rect><path id="Path_1670739" data-name="Path 1670739" d="M100.251,378.816V373H83.875v21.968A105,105,0,0,1,100.251,378.816Z" transform="translate(-81.548 -370.713)" fill="#3498db"></path><path id="Path_1670740" data-name="Path 1670740" d="M94.183,388.774c0,2.205.646,3.994,1.443,3.994s1.443-1.789,1.443-3.994-.646-3.994-1.443-3.994S94.183,386.569,94.183,388.774Z" transform="translate(-80.761 -369.814)" fill="#f1c40f"></path></g><g id="Group_1165877" data-name="Group 1165877" transform="translate(57.223 111.905)"><rect id="Rectangle_225441" data-name="Rectangle 225441" width="21.03" height="29.797" fill="#ecf0f1"></rect><rect id="Rectangle_225442" data-name="Rectangle 225442" width="16.376" height="27.513" transform="translate(2.327 2.283)" fill="#2980b9"></rect><path id="Path_1670741" data-name="Path 1670741" d="M136.661,378.816V373H120.285v21.968A105,105,0,0,1,136.661,378.816Z" transform="translate(-117.958 -370.713)" fill="#3498db"></path><path id="Path_1670742" data-name="Path 1670742" d="M130.593,388.774c0,2.205.646,3.994,1.443,3.994s1.443-1.789,1.443-3.994-.646-3.994-1.443-3.994S130.593,386.569,130.593,388.774Z" transform="translate(-117.171 -369.814)" fill="#f1c40f"></path></g><g id="Group_1165878" data-name="Group 1165878" transform="translate(96.413 111.905)"><rect id="Rectangle_225443" data-name="Rectangle 225443" width="21.03" height="29.797" fill="#ecf0f1"></rect><rect id="Rectangle_225444" data-name="Rectangle 225444" width="16.376" height="27.513" transform="translate(2.327 2.283)" fill="#2980b9"></rect><path id="Path_1670743" data-name="Path 1670743" d="M173.071,378.816V373H156.7v21.968A105,105,0,0,1,173.071,378.816Z" transform="translate(-154.368 -370.713)" fill="#3498db"></path><ellipse id="Ellipse_58567" data-name="Ellipse 58567" cx="1.443" cy="3.994" rx="1.443" ry="3.994" transform="translate(13.422 14.967)" fill="#f1c40f"></ellipse></g><g id="Group_1165879" data-name="Group 1165879" transform="translate(135.603 111.905)"><rect id="Rectangle_225445" data-name="Rectangle 225445" width="21.03" height="29.797" fill="#ecf0f1"></rect><rect id="Rectangle_225446" data-name="Rectangle 225446" width="16.376" height="27.513" transform="translate(2.327 2.283)" fill="#2980b9"></rect><path id="Path_1670744" data-name="Path 1670744" d="M209.481,378.816V373H193.1v21.968A105,105,0,0,1,209.481,378.816Z" transform="translate(-190.778 -370.713)" fill="#3498db"></path><ellipse id="Ellipse_58568" data-name="Ellipse 58568" cx="1.443" cy="3.994" rx="1.443" ry="3.994" transform="translate(13.422 14.967)" fill="#f1c40f"></ellipse></g><rect id="Rectangle_225447" data-name="Rectangle 225447" width="9.136" height="38.281" transform="translate(4.386 103.42)" fill="#f5f0e4"></rect><path id="Path_1670745" data-name="Path 1670745" d="M216.957,362.993H77.521V378.06H99.387v23.214h9.136V378.06h30.055v23.214h9.135V378.06h30.055v23.214H186.9V378.06h30.055v23.214h9.135V362.993Z" transform="translate(-63.999 -259.572)" fill="#9898a3" opacity="0.7" style="mix-blend-mode: multiply;isolation: isolate"></path><rect id="Rectangle_225448" data-name="Rectangle 225448" width="9.135" height="38.281" transform="translate(43.576 103.42)" fill="#f5f0e4"></rect><rect id="Rectangle_225449" data-name="Rectangle 225449" width="9.135" height="38.281" transform="translate(82.766 103.42)" fill="#f5f0e4"></rect><rect id="Rectangle_225450" data-name="Rectangle 225450" width="9.135" height="38.281" transform="translate(121.956 103.42)" fill="#f5f0e4"></rect><rect id="Rectangle_225451" data-name="Rectangle 225451" width="9.136" height="38.281" transform="translate(161.146 103.42)" fill="#f5f0e4"></rect><path id="Path_1670746" data-name="Path 1670746" d="M201.443,274.624H69.033V369.74H234.545V274.624Z" transform="translate(-64.647 -266.319)" fill="#f5f0e4"></path><g id="Group_1165880" data-name="Group 1165880" transform="translate(5.751 9.668)"><rect id="Rectangle_225452" data-name="Rectangle 225452" width="30.374" height="28.977" transform="translate(66.205)" fill="#3a9ae3"></rect><rect id="Rectangle_225453" data-name="Rectangle 225453" width="30.374" height="28.977" transform="translate(33.102)" fill="#3296df"></rect><rect id="Rectangle_225454" data-name="Rectangle 225454" width="30.372" height="28.977" transform="translate(0 31.706)" fill="#3094e1"></rect><rect id="Rectangle_225455" data-name="Rectangle 225455" width="30.374" height="28.977" transform="translate(33.102 31.706)" fill="#3896e1"></rect><rect id="Rectangle_225456" data-name="Rectangle 225456" width="30.374" height="28.977" transform="translate(66.205 31.706)" fill="#349ee1"></rect><rect id="Rectangle_225457" data-name="Rectangle 225457" width="30.372" height="28.977" transform="translate(99.308)" fill="#3494dd"></rect><rect id="Rectangle_225458" data-name="Rectangle 225458" width="30.372" height="28.977" transform="translate(99.308 31.706)" fill="#2ea0df"></rect><rect id="Rectangle_225459" data-name="Rectangle 225459" width="30.372" height="28.977" fill="#32a2dd"></rect><rect id="Rectangle_225460" data-name="Rectangle 225460" width="30.374" height="28.977" transform="translate(132.409 31.706)" fill="#3a98df"></rect><rect id="Rectangle_225461" data-name="Rectangle 225461" width="30.374" height="28.974" transform="translate(132.409 63.413)" fill="#3892e1"></rect><rect id="Rectangle_225462" data-name="Rectangle 225462" width="30.374" height="28.977" transform="translate(132.409)" fill="#349edf"></rect><rect id="Rectangle_225463" data-name="Rectangle 225463" width="30.372" height="28.974" transform="translate(0 63.413)" fill="#3692e9"></rect><rect id="Rectangle_225464" data-name="Rectangle 225464" width="30.372" height="28.974" transform="translate(99.308 63.413)" fill="#329ce7"></rect><rect id="Rectangle_225465" data-name="Rectangle 225465" width="30.374" height="28.974" transform="translate(33.102 63.413)" fill="#3e96e3"></rect><rect id="Rectangle_225466" data-name="Rectangle 225466" width="30.374" height="28.974" transform="translate(66.205 63.413)" fill="#3094e5"></rect></g><g id="Group_1165881" data-name="Group 1165881" transform="translate(4.386 8.304)" opacity="0.6" style="mix-blend-mode: overlay;isolation: isolate"><path id="Path_1670747" data-name="Path 1670747" d="M163.644,275.764v-1.141h-33.1v31.705h2.538Z" transform="translate(-64.337 -274.624)" fill="#3a9ae3"></path><rect id="Rectangle_225467" data-name="Rectangle 225467" width="33.102" height="31.705" transform="translate(33.102 0)" fill="#3296df"></rect><rect id="Rectangle_225468" data-name="Rectangle 225468" width="33.102" height="31.706" transform="translate(0 31.705)" fill="#3094e1"></rect><path id="Path_1670748" data-name="Path 1670748" d="M132.89,306.618V304.08h-33.1v31.706h3.935Z" transform="translate(-66.685 -272.375)" fill="#3896e1"></path><path id="Path_1670749" data-name="Path 1670749" d="M151.2,334.307h10.865V323.442Z" transform="translate(-62.76 -270.896)" fill="#349ee1"></path><path id="Path_1670750" data-name="Path 1670750" d="M180.658,304.95H192.92V292.688Z" transform="translate(-60.511 -273.244)" fill="#3494dd"></path><path id="Path_1670751" data-name="Path 1670751" d="M194.4,305.233V304.08H182.137L161.3,324.92v10.865h2.55Z" transform="translate(-61.989 -272.375)" fill="#2ea0df"></path><rect id="Rectangle_225469" data-name="Rectangle 225469" width="33.102" height="31.705" transform="translate(0 0)" fill="#32a2dd"></rect><path id="Path_1670752" data-name="Path 1670752" d="M211.424,334.405h12.25v-12.25Z" transform="translate(-58.162 -270.995)" fill="#3a98df"></path><path id="Path_1670753" data-name="Path 1670753" d="M225.153,339.478v-5.942H212.9l-20.853,20.853v10.853h7.339Z" transform="translate(-59.641 -270.126)" fill="#3892e1"></path><path id="Path_1670754" data-name="Path 1670754" d="M224.909,274.624H211.494l-19.443,19.443v12.262H193.2Z" transform="translate(-59.641 -274.624)" fill="#349edf"></path><path id="Path_1670755" data-name="Path 1670755" d="M102.135,337.472v-3.935h-33.1v31.705h5.332Z" transform="translate(-69.033 -270.126)" fill="#3692e9"></path><path id="Path_1670756" data-name="Path 1670756" d="M181.968,363.763H192.82V352.91Z" transform="translate(-60.411 -268.647)" fill="#329ce7"></path><path id="Path_1670757" data-name="Path 1670757" d="M121.746,363.664h9.468V354.2Z" transform="translate(-65.009 -268.548)" fill="#3e96e3"></path><path id="Path_1670758" data-name="Path 1670758" d="M163.644,336.087v-2.55H152.779l-22.237,22.237v9.468h3.947Z" transform="translate(-64.337 -270.126)" fill="#3094e5"></path></g><g id="Group_1165882" data-name="Group 1165882" transform="translate(9.211 4.105)"><rect id="Rectangle_225470" data-name="Rectangle 225470" width="4.918" height="4.2" fill="#2a3c59"></rect><rect id="Rectangle_225471" data-name="Rectangle 225471" width="4.919" height="4.2" transform="translate(37.736)" fill="#2a3c59"></rect><rect id="Rectangle_225472" data-name="Rectangle 225472" width="4.918" height="4.2" transform="translate(75.471)" fill="#2a3c59"></rect><rect id="Rectangle_225473" data-name="Rectangle 225473" width="4.919" height="4.2" transform="translate(113.207)" fill="#2a3c59"></rect><rect id="Rectangle_225474" data-name="Rectangle 225474" width="4.918" height="4.2" transform="translate(150.943)" fill="#2a3c59"></rect></g><rect id="Rectangle_225475" data-name="Rectangle 225475" width="174.284" height="4.105" rx="1.594" fill="#33496d"></rect></g><path id="Path_1670759" data-name="Path 1670759" d="M425.885,294.289h-1.019v-3.043H414.347v-7.468h4.946a1.5,1.5,0,0,0,1.5-1.5V281.7a1.5,1.5,0,0,0-1.5-1.5H305.174a1.5,1.5,0,0,0-1.5,1.5v.588a1.5,1.5,0,0,0,1.5,1.5h4.33v7.468h-9.9v3.043h-1.02v1.588h1.02v8.963h4.126v6.273h3.225v56.9h-1.924v6.438h1.924v33.147H417.514V374.447h1.924V368.01h-1.924v-56.9h3.225V304.84h4.127v-8.963h1.019ZM338.2,283.779h22.076v7.468H338.2Zm25.385,0h22.075v7.468H363.581Zm47.458,7.468H388.964v-7.468h22.075Zm-98.226-7.468h22.076v7.468H312.812Z" transform="translate(22.796 -34.026)" fill="#9898a3" opacity="0.7" style="mix-blend-mode: multiply;isolation: isolate"></path><g id="Group_1165897" data-name="Group 1165897" transform="translate(362.628 235.816)"><rect id="Rectangle_225476" data-name="Rectangle 225476" width="112.677" height="111.108" transform="translate(9.052 26.644)" fill="#f0e3c7"></rect><g id="Group_1165887" data-name="Group 1165887" transform="translate(28.918 109.54)"><rect id="Rectangle_225477" data-name="Rectangle 225477" width="33.995" height="4.294" transform="translate(0 0.137)" fill="#ecf0f1"></rect><g id="Group_1165884" data-name="Group 1165884" transform="translate(16.092 1.236)"><path id="Path_1670760" data-name="Path 1670760" d="M379.393,374.1h-.009l-.55.262-.111-.5.764-.357h.558v2.886h-.652Z" transform="translate(-378.723 -373.496)" fill="#eb3127"></path></g><rect id="Rectangle_225478" data-name="Rectangle 225478" width="33.995" height="0.716" fill="#eb3127"></rect><rect id="Rectangle_225479" data-name="Rectangle 225479" width="33.995" height="1.888" transform="translate(0 4.431)" fill="#f5f0e4"></rect><rect id="Rectangle_225480" data-name="Rectangle 225480" width="33.995" height="0.654" transform="translate(0 4.758)" fill="#eb3127"></rect><rect id="Rectangle_225481" data-name="Rectangle 225481" width="31.794" height="21.855" transform="translate(1.1 6.319)" fill="#f5f0e4"></rect><rect id="Rectangle_225482" data-name="Rectangle 225482" width="31.908" height="1.888" transform="translate(1.043 26.324)" fill="#f5f0e4"></rect><g id="Group_1165885" data-name="Group 1165885" transform="translate(1.043 8.622)"><rect id="Rectangle_225483" data-name="Rectangle 225483" width="31.908" height="0.416" transform="translate(0 15.215)" fill="#9898a3" opacity="0.7" style="mix-blend-mode: multiply;isolation: isolate"></rect><rect id="Rectangle_225484" data-name="Rectangle 225484" width="31.908" height="0.416" transform="translate(0 12.172)" fill="#9898a3" opacity="0.7" style="mix-blend-mode: multiply;isolation: isolate"></rect><rect id="Rectangle_225485" data-name="Rectangle 225485" width="31.908" height="0.416" transform="translate(0 9.129)" fill="#9898a3" opacity="0.7" style="mix-blend-mode: multiply;isolation: isolate"></rect><rect id="Rectangle_225486" data-name="Rectangle 225486" width="31.908" height="0.416" transform="translate(0 6.086)" fill="#9898a3" opacity="0.7" style="mix-blend-mode: multiply;isolation: isolate"></rect><rect id="Rectangle_225487" data-name="Rectangle 225487" width="31.908" height="0.416" transform="translate(0 3.043)" fill="#9898a3" opacity="0.7" style="mix-blend-mode: multiply;isolation: isolate"></rect><rect id="Rectangle_225488" data-name="Rectangle 225488" width="31.908" height="0.416" fill="#9898a3" opacity="0.7" style="mix-blend-mode: multiply;isolation: isolate"></rect></g><rect id="Rectangle_225489" data-name="Rectangle 225489" width="31.794" height="4.299" transform="translate(1.1 6.319)" fill="#9898a3" opacity="0.7" style="mix-blend-mode: multiply;isolation: isolate"></rect><rect id="Rectangle_225490" data-name="Rectangle 225490" width="4.166" height="17.556" transform="translate(28.729 10.618)" fill="#9898a3" opacity="0.7" style="mix-blend-mode: multiply;isolation: isolate"></rect><g id="Group_1165886" data-name="Group 1165886" transform="translate(5.909 26.858)"><rect id="Rectangle_225491" data-name="Rectangle 225491" width="6.343" height="0.82" fill="#33496d"></rect><rect id="Rectangle_225492" data-name="Rectangle 225492" width="6.343" height="0.82" transform="translate(15.835)" fill="#33496d"></rect></g></g><g id="Group_1165892" data-name="Group 1165892" transform="translate(74.739 109.54)"><rect id="Rectangle_225493" data-name="Rectangle 225493" width="33.995" height="4.294" transform="translate(0 0.137)" fill="#ecf0f1"></rect><g id="Group_1165889" data-name="Group 1165889" transform="translate(15.975 1.189)"><g id="Group_1165888" data-name="Group 1165888"><path id="Path_1670761" data-name="Path 1670761" d="M421.185,376.385v-.407l.374-.34c.63-.563.935-.887.945-1.224,0-.236-.142-.422-.476-.422a1.04,1.04,0,0,0-.617.241l-.189-.485a1.6,1.6,0,0,1,.945-.3.9.9,0,0,1,1.012.9,1.787,1.787,0,0,1-.768,1.242l-.266.224v.008h1.087v.555Z" transform="translate(-421.185 -373.452)" fill="#eb3127"></path></g></g><rect id="Rectangle_225494" data-name="Rectangle 225494" width="33.995" height="0.716" fill="#eb3127"></rect><rect id="Rectangle_225495" data-name="Rectangle 225495" width="33.995" height="1.888" transform="translate(0 4.431)" fill="#f5f0e4"></rect><rect id="Rectangle_225496" data-name="Rectangle 225496" width="33.995" height="0.654" transform="translate(0 4.758)" fill="#eb3127"></rect><rect id="Rectangle_225497" data-name="Rectangle 225497" width="31.794" height="21.855" transform="translate(1.1 6.319)" fill="#5e4b45" opacity="0.7" style="mix-blend-mode: multiply;isolation: isolate"></rect><rect id="Rectangle_225498" data-name="Rectangle 225498" width="31.794" height="10.53" transform="translate(1.1 6.319)" fill="#f5f0e4"></rect><rect id="Rectangle_225499" data-name="Rectangle 225499" width="31.908" height="1.888" transform="translate(1.043 14.708)" fill="#f5f0e4"></rect><g id="Group_1165890" data-name="Group 1165890" transform="translate(1.043 8.622)"><rect id="Rectangle_225500" data-name="Rectangle 225500" width="31.908" height="0.416" transform="translate(0 3.043)" fill="#9898a3" opacity="0.7" style="mix-blend-mode: multiply;isolation: isolate"></rect><rect id="Rectangle_225501" data-name="Rectangle 225501" width="31.908" height="0.416" fill="#9898a3" opacity="0.7" style="mix-blend-mode: multiply;isolation: isolate"></rect></g><rect id="Rectangle_225502" data-name="Rectangle 225502" width="31.794" height="4.299" transform="translate(1.1 6.319)" fill="#9898a3" opacity="0.7" style="mix-blend-mode: multiply;isolation: isolate"></rect><rect id="Rectangle_225503" data-name="Rectangle 225503" width="4.166" height="6.231" transform="translate(28.729 10.618)" fill="#9898a3" opacity="0.7" style="mix-blend-mode: multiply;isolation: isolate"></rect><g id="Group_1165891" data-name="Group 1165891" transform="translate(5.909 15.242)"><rect id="Rectangle_225504" data-name="Rectangle 225504" width="6.343" height="0.82" fill="#33496d"></rect><rect id="Rectangle_225505" data-name="Rectangle 225505" width="6.343" height="0.82" transform="translate(15.835)" fill="#33496d"></rect></g></g><rect id="Rectangle_225506" data-name="Rectangle 225506" width="112.677" height="10.325" transform="translate(9.052 26.644)" fill="#9898a3" opacity="0.7" style="mix-blend-mode: multiply;isolation: isolate"></rect><rect id="Rectangle_225507" data-name="Rectangle 225507" width="116.164" height="6.783" transform="translate(5.565 26.644)" fill="#f5f0e4"></rect><rect id="Rectangle_225508" data-name="Rectangle 225508" width="116.164" height="3.391" transform="translate(5.565 26.644)" fill="#9898a3" opacity="0.7" style="mix-blend-mode: multiply;isolation: isolate"></rect><rect id="Rectangle_225509" data-name="Rectangle 225509" width="120.626" height="14.697" transform="translate(1.103 11.947)" fill="#eb3127"></rect><rect id="Rectangle_225510" data-name="Rectangle 225510" width="121.729" height="1.716" transform="translate(0 15.237)" fill="#ffd900"></rect><rect id="Rectangle_225511" data-name="Rectangle 225511" width="112.677" height="12.082" transform="translate(9.052 100.098)" fill="#9898a3" opacity="0.7" style="mix-blend-mode: multiply;isolation: isolate"></rect><rect id="Rectangle_225512" data-name="Rectangle 225512" width="114.758" height="6.96" transform="translate(6.971 94.95)" fill="#ffd900"></rect><g id="Group_1165894" data-name="Group 1165894" transform="translate(30.018 41.848)"><rect id="Rectangle_225513" data-name="Rectangle 225513" width="12.124" height="48.604" transform="translate(0 0)" fill="#369ae3"></rect><rect id="Rectangle_225514" data-name="Rectangle 225514" width="12.124" height="48.604" transform="translate(19.67 0)" fill="#369ae3"></rect><rect id="Rectangle_225515" data-name="Rectangle 225515" width="12.124" height="48.604" transform="translate(45.821 0)" fill="#369ae3"></rect><rect id="Rectangle_225516" data-name="Rectangle 225516" width="12.124" height="48.604" transform="translate(65.491 0)" fill="#369ae3"></rect><path id="Path_1670762" data-name="Path 1670762" d="M376.919,344.329V309.456H364.795v47Z" transform="translate(-364.795 -309.456)" fill="#369ae3" opacity="0.9" style="mix-blend-mode: overlay;isolation: isolate"></path><path id="Path_1670763" data-name="Path 1670763" d="M395.194,324.658v-15.2H383.07v27.326Z" transform="translate(-363.4 -309.456)" fill="#369ae3" opacity="0.9" style="mix-blend-mode: overlay;isolation: isolate"></path><path id="Path_1670764" data-name="Path 1670764" d="M419.49,347.663V329.878L407.366,342v14.5h3.275Q415.065,352.081,419.49,347.663Z" transform="translate(-361.545 -307.897)" fill="#369ae3" opacity="0.9" style="mix-blend-mode: overlay;isolation: isolate"></path><path id="Path_1670765" data-name="Path 1670765" d="M437.765,329.418V311.6l-12.124,12.124v17.791Q431.7,335.467,437.765,329.418Z" transform="translate(-360.149 -309.292)" fill="#369ae3" opacity="0.9" style="mix-blend-mode: overlay;isolation: isolate"></path><g id="Group_1165893" data-name="Group 1165893" opacity="0.7" style="mix-blend-mode: multiply;isolation: isolate"><path id="Path_1670766" data-name="Path 1670766" d="M383.07,312.637h8.944v45.424h3.18v-48.6H383.07Z" transform="translate(-363.4 -309.456)" fill="#9898a3"></path><path id="Path_1670767" data-name="Path 1670767" d="M364.795,312.637h8.944v45.424h3.18v-48.6H364.795Z" transform="translate(-364.795 -309.456)" fill="#9898a3"></path><path id="Path_1670768" data-name="Path 1670768" d="M425.641,309.456v3.18h8.944v45.424h3.18v-48.6Z" transform="translate(-360.149 -309.456)" fill="#9898a3"></path><path id="Path_1670769" data-name="Path 1670769" d="M407.366,312.637h8.944v45.424h3.18v-48.6H407.366Z" transform="translate(-361.545 -309.456)" fill="#9898a3"></path></g></g><g id="Group_1165896" data-name="Group 1165896" transform="translate(5.509)"><g id="Group_1165895" data-name="Group 1165895" transform="translate(6.301 3.366)"><rect id="Rectangle_225517" data-name="Rectangle 225517" width="3.577" height="8.581" fill="#2a3c59"></rect><rect id="Rectangle_225518" data-name="Rectangle 225518" width="3.577" height="8.581" transform="translate(27.447)" fill="#2a3c59"></rect><rect id="Rectangle_225519" data-name="Rectangle 225519" width="3.577" height="8.581" transform="translate(54.894)" fill="#2a3c59"></rect><rect id="Rectangle_225520" data-name="Rectangle 225520" width="3.577" height="8.581" transform="translate(82.342)" fill="#2a3c59"></rect><rect id="Rectangle_225521" data-name="Rectangle 225521" width="0.13" height="8.581" transform="translate(109.789)" fill="#2a3c59"></rect></g><path id="Path_1670770" data-name="Path 1670770" d="M458.244,270.577h-114.6a1.618,1.618,0,0,0-1.619,1.619v.635a1.618,1.618,0,0,0,1.619,1.618h114.6Z" transform="translate(-342.024 -270.577)" fill="#33496d"></path></g></g><g id="Group_1165928" data-name="Group 1165928" transform="translate(392.181 83.536)"><circle id="Ellipse_58563" data-name="Ellipse 58563" cx="20.457" cy="20.457" r="20.457" transform="translate(0 33.692) rotate(-45)" fill="#9898a3" opacity="0.7" style="mix-blend-mode: multiply;isolation: isolate"></circle><circle id="Ellipse_58564" data-name="Ellipse 58564" cx="20.457" cy="20.457" r="20.457" transform="translate(4.761 28.931) rotate(-45)" fill="#fff"></circle><circle id="Ellipse_58565" data-name="Ellipse 58565" cx="18.286" cy="18.286" r="18.286" transform="translate(15.407 10.646)" fill="#eb3127"></circle><circle id="Ellipse_58566" data-name="Ellipse 58566" cx="16.667" cy="16.667" r="16.667" transform="translate(17.025 12.264)" fill="#fff"></circle><rect id="Rectangle_225380" data-name="Rectangle 225380" width="23.741" height="7.01" transform="translate(21.822 25.426)" fill="#48a2f5"></rect><rect id="Rectangle_225381" data-name="Rectangle 225381" width="7.01" height="23.741" transform="translate(30.187 17.061)" fill="#48a2f5"></rect></g></g><g id="Group_1165900" data-name="Group 1165900" transform="translate(453.061 364.725)"><path id="Path_1670771" data-name="Path 1670771" d="M421.036,391.657h.727l.447,6.728H421.6l.073.866h5.594l.073-.866h-.607l.447-6.728h.728l.111-1.315h-7.1Z" transform="translate(-420.925 -390.342)" fill="#9898a3" opacity="0.7" style="mix-blend-mode: multiply;isolation: isolate"></path><g id="Group_1165899" data-name="Group 1165899" transform="translate(3.472 0)"><path id="Path_1670772" data-name="Path 1670772" d="M430.349,391.564H424.93l.459,6.9h4.5Z" transform="translate(-424.091 -390.249)" fill="#c0392b"></path><path id="Path_1670773" data-name="Path 1670773" d="M426.061,392.136h0a.7.7,0,0,0-.631.8l.245,4.447a.632.632,0,0,0,.609.606h0a.575.575,0,0,0,.563-.606l-.1-4.447A.767.767,0,0,0,426.061,392.136Z" transform="translate(-424.053 -390.206)" fill="#912b21"></path><path id="Path_1670774" data-name="Path 1670774" d="M430.521,397.815h-5.74l.073.865h5.594Z" transform="translate(-424.103 -389.772)" fill="#e74c3c"></path><path id="Path_1670775" data-name="Path 1670775" d="M431.247,390.342h-7.1l.111,1.315h6.875Z" transform="translate(-424.151 -390.342)" fill="#e74c3c"></path></g></g><g id="Group_1165902" data-name="Group 1165902" transform="translate(361.678 364.725)"><path id="Path_1670776" data-name="Path 1670776" d="M336.134,391.657h.728l.447,6.728H336.7l.073.866h5.594l.073-.866h-.607l.447-6.728h.728l.111-1.315h-7.1Z" transform="translate(-336.024 -390.342)" fill="#9898a3" opacity="0.7" style="mix-blend-mode: multiply;isolation: isolate"></path><g id="Group_1165901" data-name="Group 1165901" transform="translate(3.472 0)"><path id="Path_1670777" data-name="Path 1670777" d="M345.448,391.564h-5.419l.459,6.9h4.5Z" transform="translate(-339.19 -390.249)" fill="#c0392b"></path><path id="Path_1670778" data-name="Path 1670778" d="M341.159,392.136h0a.7.7,0,0,0-.63.8l.245,4.447a.631.631,0,0,0,.609.606h0a.576.576,0,0,0,.563-.606l-.1-4.447A.766.766,0,0,0,341.159,392.136Z" transform="translate(-339.152 -390.206)" fill="#912b21"></path><path id="Path_1670779" data-name="Path 1670779" d="M345.62,397.815h-5.74l.073.865h5.594Z" transform="translate(-339.202 -389.772)" fill="#e74c3c"></path><path id="Path_1670780" data-name="Path 1670780" d="M346.346,390.342h-7.1l.111,1.315h6.875Z" transform="translate(-339.25 -390.342)" fill="#e74c3c"></path></g></g><g id="Group_1165907" data-name="Group 1165907" transform="translate(89.667 357.147)"><path id="Path_1670781" data-name="Path 1670781" d="M123.512,387.378v-1.585h-3.844v-.1a.769.769,0,0,0-.809-.72h0a.769.769,0,0,0-.809.72v.1H88.774v-.1a.769.769,0,0,0-.809-.72h0a.769.769,0,0,0-.809.72v.1H83.307v1.585h3.844v.816H83.307v1.585h3.844v.816H83.307v1.587h3.844v.04H83.307v2.409h3.844v3.943H87.08a.726.726,0,0,0-.763.68v.371h3.291v-.371a.725.725,0,0,0-.763-.68h-.071V394.63h29.271v3.943h-.071a.726.726,0,0,0-.763.68v.371H120.5v-.371a.725.725,0,0,0-.763-.68h-.071V394.63h3.844v-2.409h-3.844v-.04h3.844v-1.587h-3.844v-.816h3.844v-1.585h-3.844v-.816Zm-5.467,4.844H88.774v-.04h29.271Zm0-1.626H88.774v-.816h29.271Zm0-2.4H88.774v-.816h29.271Z" transform="translate(-83.307 -383.174)" fill="#9898a3" opacity="0.7" style="mix-blend-mode: multiply;isolation: isolate"></path><g id="Group_1165906" data-name="Group 1165906" transform="translate(2.699)"><g id="Group_1165905" data-name="Group 1165905" transform="translate(3.009)"><g id="Group_1165903" data-name="Group 1165903"><path id="Path_1670782" data-name="Path 1670782" d="M91.008,399.752H89.386V384.114a.811.811,0,0,1,.81-.812h0a.811.811,0,0,1,.812.812Z" transform="translate(-88.551 -383.302)" fill="#5274ad"></path><path id="Path_1670783" data-name="Path 1670783" d="M91.008,394.85V384.111a.81.81,0,0,0-.809-.809h0a.809.809,0,0,0-.809.809V394.85Z" transform="translate(-88.551 -383.302)" fill="#c4b4ac" style="mix-blend-mode: multiply;isolation: isolate"></path><path id="Path_1670784" data-name="Path 1670784" d="M91.9,398.669H88.61a1.181,1.181,0,0,1,1.181-1.181h.931a1.181,1.181,0,0,1,1.181,1.181Z" transform="translate(-88.61 -382.219)" fill="#5274ad"></path></g><g id="Group_1165904" data-name="Group 1165904" transform="translate(30.894)"><path id="Path_1670785" data-name="Path 1670785" d="M119.711,399.752h-1.622V384.114a.811.811,0,0,1,.81-.812h0a.811.811,0,0,1,.812.812Z" transform="translate(-117.254 -383.302)" fill="#5274ad"></path><path id="Path_1670786" data-name="Path 1670786" d="M119.711,394.85V384.111a.81.81,0,0,0-.809-.809h0a.809.809,0,0,0-.809.809V394.85Z" transform="translate(-117.254 -383.302)" fill="#c4b4ac" style="mix-blend-mode: multiply;isolation: isolate"></path><path id="Path_1670787" data-name="Path 1670787" d="M120.606,398.669h-3.293a1.181,1.181,0,0,1,1.181-1.181h.931a1.181,1.181,0,0,1,1.181,1.181Z" transform="translate(-117.313 -382.219)" fill="#5274ad"></path></g></g><rect id="Rectangle_225522" data-name="Rectangle 225522" width="40.205" height="2.704" transform="translate(0 8.138)" fill="#e74c3c"></rect><rect id="Rectangle_225523" data-name="Rectangle 225523" width="40.205" height="0.777" transform="translate(0 8.138)" fill="#ff7769"></rect><rect id="Rectangle_225524" data-name="Rectangle 225524" width="40.205" height="1.78" transform="translate(0 6.313)" fill="#c0392b"></rect><rect id="Rectangle_225525" data-name="Rectangle 225525" width="40.205" height="1.78" transform="translate(0 3.617)" fill="#c0392b"></rect><rect id="Rectangle_225526" data-name="Rectangle 225526" width="40.205" height="1.78" transform="translate(0 0.92)" fill="#c0392b"></rect></g></g><g id="Group_1163531" data-name="Group 1163531" transform="translate(96.179 -44.886)"><g id="Group_1163512" data-name="Group 1163512" transform="translate(147.629 114.895)"><path id="Subtraction_2" data-name="Subtraction 2" d="M4.666,14.945A3.875,3.875,0,0,0,5.342,17.1a5.207,5.207,0,0,0,1.8,1.675,4.79,4.79,0,0,0,2.416.644,5.152,5.152,0,0,0,2.545-.644,4.989,4.989,0,0,0,1.82-1.675,3.941,3.941,0,0,0,.66-2.158l3.62,2.6c0,1.7.557.725-.3,2.088a8.869,8.869,0,0,1-3.495,3.189,10.376,10.376,0,0,1-4.848,1.143,10.28,10.28,0,0,1-4.831-1.143,8.78,8.78,0,0,1-3.463-3.189A8.513,8.513,0,0,1,0,15.042V0h4.67Z" transform="translate(0.005 1.291)" fill="#030d4e"></path><path id="Path_1623148" data-name="Path 1623148" d="M31.253-187.78a9.453,9.453,0,0,1-2.58,1.334,10.843,10.843,0,0,1-3.856.667,11.227,11.227,0,0,1-5.8-1.45,9.807,9.807,0,0,1-3.769-3.9,11.26,11.26,0,0,1-1.3-5.377,12.312,12.312,0,0,1,1.3-5.74,9.627,9.627,0,0,1,3.653-3.928,10.347,10.347,0,0,1,5.421-1.406,11.881,11.881,0,0,1,3.595.522,12.522,12.522,0,0,1,2.9,1.3l-1.652,3.971a7.694,7.694,0,0,0-4.7-1.739,5.592,5.592,0,0,0-3.044.9,6.506,6.506,0,0,0-2.261,2.45,7.091,7.091,0,0,0-.841,3.435,7.911,7.911,0,0,0,.783,3.609,5.814,5.814,0,0,0,2.232,2.42,6.464,6.464,0,0,0,3.391.87,7.4,7.4,0,0,0,2.812-.507,6.183,6.183,0,0,0,1.971-1.2Z" transform="translate(-5.722 207.58)" fill="#030d4e"></path><circle id="Ellipse_53828" data-name="Ellipse 53828" cx="4.786" cy="4.786" r="4.786" transform="translate(14.465 6.11)" fill="#f5a01b"></circle><path id="Path_1623030" data-name="Path 1623030" d="M238.2,602h2.09l.483-1.329,1.04,2.645,1.051-2.645.472,1.329h1.734" transform="translate(-222.412 -590.993)" fill="none" stroke="#030d4e" stroke-linecap="round" stroke-width="3"></path></g><path id="Path_1623151" data-name="Path 1623151" d="M2.186-14.13l.044-.055.48-.543h.376l-.609.661.611.813H2.721l-.454-.629-.072.072v.556H1.9v-1.473h.294v.524ZM4.01-13.8a.241.241,0,0,0,.042.134.324.324,0,0,0,.112.1.3.3,0,0,0,.151.04.32.32,0,0,0,.158-.04.31.31,0,0,0,.113-.1.245.245,0,0,0,.042-.134v-.929h.286v.935a.524.524,0,0,1-.08.285.551.551,0,0,1-.217.2.645.645,0,0,1-.3.071.639.639,0,0,1-.3-.071.546.546,0,0,1-.215-.2.529.529,0,0,1-.079-.285v-.935h.291Zm2.488.545-.31-.468H5.994v.468H5.7v-1.473h.446a.623.623,0,0,1,.425.133.459.459,0,0,1,.151.363.583.583,0,0,1-.057.255.423.423,0,0,1-.175.187l.342.534ZM5.994-14H6.2a.205.205,0,0,0,.172-.069.237.237,0,0,0,.054-.149.283.283,0,0,0-.046-.153.194.194,0,0,0-.178-.073H5.994Zm2.318.749L8-13.723H7.808v.468H7.517v-1.473h.446a.623.623,0,0,1,.425.133.459.459,0,0,1,.151.363.583.583,0,0,1-.057.255.423.423,0,0,1-.175.187l.342.534ZM7.807-14h.206a.205.205,0,0,0,.172-.069.237.237,0,0,0,.054-.149.283.283,0,0,0-.046-.153.194.194,0,0,0-.178-.073H7.808Zm1.813-.725v1.473H9.33v-1.473Zm2.2.6.044-.055.48-.542h.376l-.609.661.611.813h-.368l-.454-.629-.072.072v.556h-.294v-1.473h.294v.524Zm1.824.331a.241.241,0,0,0,.042.134.324.324,0,0,0,.112.1.3.3,0,0,0,.151.04.32.32,0,0,0,.158-.04.31.31,0,0,0,.113-.1.245.245,0,0,0,.042-.134v-.929h.286v.935a.524.524,0,0,1-.08.285.551.551,0,0,1-.217.2.645.645,0,0,1-.3.071.639.639,0,0,1-.3-.071.546.546,0,0,1-.215-.2.529.529,0,0,1-.079-.285v-.935h.291Zm2.488.545-.31-.468h-.194v.468h-.291v-1.473h.446a.623.623,0,0,1,.425.133.459.459,0,0,1,.151.363.583.583,0,0,1-.057.255.423.423,0,0,1-.175.187l.342.534Zm-.5-.749h.206A.205.205,0,0,0,16-14.072a.237.237,0,0,0,.054-.149.283.283,0,0,0-.046-.153.194.194,0,0,0-.178-.073h-.208Zm2.318.749-.31-.468h-.194v.468H17.15v-1.473H17.6a.623.623,0,0,1,.425.133.459.459,0,0,1,.151.363.583.583,0,0,1-.057.255.423.423,0,0,1-.175.187l.342.534ZM17.44-14h.206a.205.205,0,0,0,.172-.069.237.237,0,0,0,.054-.149.283.283,0,0,0-.046-.153.194.194,0,0,0-.178-.073h-.208Zm1.813-.725v1.473h-.291v-1.473Z" transform="translate(149.883 164.386)" fill="#f5a01b"></path><path id="Path_1623152" data-name="Path 1623152" d="M18.565-35.884v2.422a1.04,1.04,0,0,0,1.129,1.177,1.04,1.04,0,0,0,1.129-1.177v-2.422h-.8v2.446c0,.348-.122.471-.329.471s-.329-.122-.329-.471v-2.446Zm3.269,3.528h.79v-1.736l.635,1.736h.88l-.682-1.632a.84.84,0,0,0,.593-.847v-.132a.913.913,0,0,0-1.04-.917H21.834Zm1.068-2.87c.221,0,.358.1.358.39v.071c0,.315-.136.442-.358.442h-.278v-.9Zm3.142.964v.635h.4v.165c0,.362-.136.494-.353.494s-.353-.132-.353-.517v-1.27c0-.39.136-.517.353-.517s.353.127.353.517v.2h.8v-.174a1.072,1.072,0,0,0-1.152-1.223,1.072,1.072,0,0,0-1.152,1.223v1.223c0,.818.376,1.223.978,1.223a.789.789,0,0,0,.743-.423v.353h.583v-1.905Zm2.211,1.905h1.759v-.682h-.969v-.776h.875V-34.5h-.875V-35.2h.969v-.682H28.256Zm5.005-3.528h-.644v3l-.5-3H30.956v3.529h.649V-35.4l.5,3.039h1.157Zm.847.682h.574v2.846h.8V-35.2h.574v-.682H34.108Zm5.852,1.341v.376c0,.386-.132.517-.353.517s-.353-.132-.353-.517v-1.27c0-.39.136-.517.353-.517s.353.127.353.517v.329h.8v-.306a1.072,1.072,0,0,0-1.152-1.223,1.072,1.072,0,0,0-1.152,1.223v1.223a1.072,1.072,0,0,0,1.152,1.223,1.072,1.072,0,0,0,1.152-1.223v-.353Zm1.552,1.505h.772l.085-.635h.644l.085.635h.767l-.555-3.528H42.068Zm.946-1.294.235-1.727.23,1.727Zm2.23,1.294h.791v-1.736l.635,1.736h.88l-.682-1.632a.84.84,0,0,0,.593-.847v-.132a.913.913,0,0,0-1.04-.917H44.688Zm1.068-2.87c.221,0,.358.1.358.39v.071c0,.315-.136.442-.358.442h-.277v-.9Zm2.084,2.87H49.6v-.682H48.63v-.776h.875V-34.5H48.63V-35.2H49.6v-.682H47.84Z" transform="translate(126.435 180.485)" fill="#030d4e"></path></g></g><g id="Group_1165926" data-name="Group 1165926" transform="translate(4.101 316.729)"><path id="Path_1670830" data-name="Path 1670830" d="M83.918,352.457a19.6,19.6,0,0,0,0-14.074v-7.4H79.211a25.712,25.712,0,0,0-2.759-2.513,20.282,20.282,0,0,0-1.7-1.3c-.323-.237-.657-.452-1-.667a28.972,28.972,0,0,0-.979-4.348H17.835a27.692,27.692,0,0,0-1.066,5.016.54.54,0,0,0-.022.129C9.02,330.642,3.81,336.907,3.81,344.075c0,7.857,6.243,14.617,15.22,17.663a5.225,5.225,0,0,0-.3,1.722c0,2.6,2.024,4.93,5.2,6.469v5.027a3.771,3.771,0,0,0,3.767,3.767h3.068v2.2a4.947,4.947,0,0,0,4.94,4.94h6.006v11.646a11.786,11.786,0,0,1-2.271,6.953H51.169c-.015-.022-.029-.045-.044-.067H83.918Zm-53.157,23.92H27.694a1.429,1.429,0,0,1-1.432-1.421v-4.1a22.071,22.071,0,0,0,4.5.883Zm4.682-4.639q.872-.081,1.711-.226v3.444a1.429,1.429,0,0,1-1.432,1.421h-.28Zm6.264,9.44H35.7a.262.262,0,0,1-.258-.258v-2.2h.28a3.771,3.771,0,0,0,3.767-3.767v-3.982a17.861,17.861,0,0,0,2.217-.8Z" transform="translate(-3.81 -296.064)" fill="#9898a3" opacity="0.7" style="mix-blend-mode: multiply;isolation: isolate"></path><g id="Group_1165923" data-name="Group 1165923" transform="translate(41.642 43.807)"><g id="Group_1165918" data-name="Group 1165918" transform="translate(15.511 57.631)"><path id="Path_1670831" data-name="Path 1670831" d="M56.909,399.112a11.759,11.759,0,0,0,2.275-6.955h7.181a11.759,11.759,0,0,0,2.275,6.955Z" transform="translate(-56.909 -392.157)" fill="#6d4c41"></path></g><g id="Group_1165919" data-name="Group 1165919" transform="translate(17.787)"><rect id="Rectangle_225533" data-name="Rectangle 225533" width="7.181" height="57.63" fill="#6d4c41"></rect></g><g id="Group_1165920" data-name="Group 1165920" transform="translate(19.038 8.394)"><path id="Path_1670832" data-name="Path 1670832" d="M60.186,371.441V351.506a5.1,5.1,0,0,1,5.093-5.093H76.4a5.1,5.1,0,0,1,5.093,5.093v19.935a5.1,5.1,0,0,1-5.093,5.093H65.279A5.1,5.1,0,0,1,60.186,371.441Zm5.093-20.35a.421.421,0,0,0-.415.415v19.935a.421.421,0,0,0,.415.415H76.4a.427.427,0,0,0,.417-.415V351.506a.427.427,0,0,0-.417-.415Z" transform="translate(-60.186 -346.413)" fill="#6d4c41"></path></g><g id="Group_1165921" data-name="Group 1165921" transform="translate(6.839 12.858)"><path id="Path_1670833" data-name="Path 1670833" d="M48.852,378.751V355.5a4.943,4.943,0,0,1,4.937-4.936H61.82a4.942,4.942,0,0,1,4.936,4.936v23.254a4.941,4.941,0,0,1-4.936,4.936H53.789A4.942,4.942,0,0,1,48.852,378.751Zm4.937-23.513a.267.267,0,0,0-.259.258v23.254a.267.267,0,0,0,.259.259H61.82a.266.266,0,0,0,.258-.259V355.5a.266.266,0,0,0-.258-.258Z" transform="translate(-48.852 -350.56)" fill="#6d4c41"></path></g><g id="Group_1165922" data-name="Group 1165922" transform="translate(0 8.062)"><path id="Path_1670834" data-name="Path 1670834" d="M42.5,373.125V349.87a3.77,3.77,0,0,1,3.766-3.766H54.3a3.77,3.77,0,0,1,3.767,3.766v23.255a3.771,3.771,0,0,1-3.767,3.767H46.264A3.771,3.771,0,0,1,42.5,373.125Zm3.766-24.683a1.43,1.43,0,0,0-1.427,1.428v23.255a1.429,1.429,0,0,0,1.427,1.428H54.3a1.43,1.43,0,0,0,1.428-1.428V349.87a1.43,1.43,0,0,0-1.428-1.428Z" transform="translate(-42.498 -346.104)" fill="#6d4c41"></path></g></g><g id="Group_1165925" data-name="Group 1165925" transform="translate(21.525)"><circle id="Ellipse_58576" data-name="Ellipse 58576" cx="28.755" cy="28.755" r="28.755" transform="translate(6.902 13.213) rotate(-13.283)" fill="#72b100"></circle><ellipse id="Ellipse_58577" data-name="Ellipse 58577" cx="27.674" cy="23.243" rx="27.674" ry="23.243" transform="translate(26.073 26.135)" fill="#72b100"></ellipse><ellipse id="Ellipse_58578" data-name="Ellipse 58578" cx="25.889" cy="19.386" rx="25.889" ry="19.386" transform="translate(0 28.628)" fill="#72b100"></ellipse><ellipse id="Ellipse_58579" data-name="Ellipse 58579" cx="14.378" cy="8.396" rx="14.378" ry="8.396" transform="translate(14.918 59.004)" fill="#72b100"></ellipse><ellipse id="Ellipse_58580" data-name="Ellipse 58580" cx="24.697" cy="22.266" rx="24.697" ry="22.266" transform="translate(19.649 10.634)" fill="#a6de00"></ellipse><ellipse id="Ellipse_58581" data-name="Ellipse 58581" cx="23.768" cy="17.998" rx="23.768" ry="17.998" transform="translate(31.101 26.352)" fill="#a6de00"></ellipse><ellipse id="Ellipse_58582" data-name="Ellipse 58582" cx="22.236" cy="15.011" rx="22.236" ry="15.011" transform="translate(8.708 28.282)" fill="#a6de00"></ellipse><path id="Path_1670835" data-name="Path 1670835" d="M42.063,354.039c0,3.59,5.529,6.5,12.349,6.5s12.349-2.912,12.349-6.5-5.529-6.5-12.349-6.5S42.063,350.448,42.063,354.039Z" transform="translate(-22.414 -294.126)" fill="#a6de00"></path><g id="Group_1165924" data-name="Group 1165924" transform="translate(11.081 13.769)"><path id="Path_1670836" data-name="Path 1670836" d="M63.008,312.647c0,1.071,1.3,1.94,2.906,1.94s2.905-.869,2.905-1.94-1.3-1.94-2.905-1.94S63.008,311.576,63.008,312.647Z" transform="translate(-31.896 -310.707)" fill="#72b100"></path><path id="Path_1670837" data-name="Path 1670837" d="M54.121,317.637c0,1.185,1.462,2.145,3.265,2.145s3.263-.96,3.263-2.145-1.461-2.146-3.263-2.146S54.121,316.452,54.121,317.637Z" transform="translate(-32.574 -310.342)" fill="#72b100"></path><path id="Path_1670838" data-name="Path 1670838" d="M55.7,312.359c0,.573.8,1.038,1.789,1.038s1.789-.465,1.789-1.038-.8-1.038-1.789-1.038S55.7,311.786,55.7,312.359Z" transform="translate(-32.454 -310.66)" fill="#72b100"></path><path id="Path_1670839" data-name="Path 1670839" d="M48.032,320.592c0,.615.721,1.113,1.611,1.113s1.61-.5,1.61-1.113-.721-1.114-1.61-1.114S48.032,319.976,48.032,320.592Z" transform="translate(-33.039 -310.037)" fill="#72b100"></path><ellipse id="Ellipse_58583" data-name="Ellipse 58583" cx="2.648" cy="1.421" rx="2.648" ry="1.421" transform="translate(6.079 33.42)" fill="#72b100"></ellipse><path id="Path_1670840" data-name="Path 1670840" d="M39.336,346.547c0,.453.657.821,1.467.821s1.468-.368,1.468-.821-.657-.821-1.468-.821S39.336,346.094,39.336,346.547Z" transform="translate(-33.703 -308.033)" fill="#72b100"></path><path id="Path_1670841" data-name="Path 1670841" d="M47.06,355.151c0,.589.872,1.067,1.947,1.067s1.947-.478,1.947-1.067-.872-1.066-1.947-1.066S47.06,354.563,47.06,355.151Z" transform="translate(-33.113 -307.395)" fill="#72b100"></path><ellipse id="Ellipse_58584" data-name="Ellipse 58584" cx="1.43" cy="0.849" rx="1.43" ry="0.849" transform="translate(0 25.534)" fill="#72b100"></ellipse><path id="Path_1670842" data-name="Path 1670842" d="M67.826,351.139c0,.739.985,1.339,2.2,1.339s2.2-.6,2.2-1.339-.985-1.338-2.2-1.338S67.826,350.4,67.826,351.139Z" transform="translate(-31.528 -307.722)" fill="#72b100"></path><path id="Path_1670843" data-name="Path 1670843" d="M71.914,347.578c0,1.023,1.391,1.852,3.106,1.852s3.106-.83,3.106-1.852-1.391-1.852-3.106-1.852S71.914,346.555,71.914,347.578Z" transform="translate(-31.216 -308.033)" fill="#72b100"></path><ellipse id="Ellipse_58585" data-name="Ellipse 58585" cx="1.255" cy="0.712" rx="1.255" ry="0.712" transform="translate(41.781 43.11)" fill="#72b100"></ellipse><path id="Path_1670844" data-name="Path 1670844" d="M55.7,338.3c0,.823,1.081,1.49,2.415,1.49s2.414-.666,2.414-1.49-1.081-1.49-2.414-1.49S55.7,337.478,55.7,338.3Z" transform="translate(-32.454 -308.714)" fill="#72b100"></path><ellipse id="Ellipse_58586" data-name="Ellipse 58586" cx="1.2" cy="0.894" rx="1.2" ry="0.894" transform="translate(19.863 31.077)" fill="#72b100"></ellipse><path id="Path_1670845" data-name="Path 1670845" d="M52.556,337.525c0,.394.538.713,1.2.713s1.2-.319,1.2-.713-.537-.714-1.2-.714S52.556,337.131,52.556,337.525Z" transform="translate(-32.694 -308.714)" fill="#72b100"></path><path id="Path_1670846" data-name="Path 1670846" d="M48.389,343.966c0,.491.721.889,1.609.889s1.61-.4,1.61-.889-.721-.889-1.61-.889S48.389,343.475,48.389,343.966Z" transform="translate(-33.012 -308.236)" fill="#72b100"></path></g></g></g></g></svg>