<svg xmlns="http://www.w3.org/2000/svg" width="286.35" height="276.599" viewBox="0 0 286.35 276.599">
  <g id="Group_1166072" data-name="Group 1166072" transform="translate(18969.801 -10436.937)">
    <path id="Path_1671044" data-name="Path 1671044" d="M19.72,0h5.1V-25.5H15.776L13.26-6.324,10.71-25.5H1.7V0H6.63V-22.542L10.268,0h5.848l3.6-22.338ZM41.65-8.33,46.92-25.5H41.412L38.794-15.1,36.142-25.5H30.6L35.87-8.33V0h5.78ZM63.75-25.5V-7.99c0,5.678,3.094,8.5,8.16,8.5s8.16-2.822,8.16-8.5V-25.5H74.29V-7.82c0,2.516-.884,3.4-2.38,3.4s-2.38-.884-2.38-3.4V-25.5ZM87.38,0h5.712V-12.546L97.682,0h6.358L99.11-11.8a6.07,6.07,0,0,0,4.284-6.12v-.952c0-4.318-3.128-6.63-7.514-6.63h-8.5ZM95.1-20.74c1.6,0,2.584.748,2.584,2.822v.51c0,2.278-.986,3.2-2.584,3.2H93.092V-20.74Zm22.712,6.97v4.59h2.89v1.19c0,2.618-.986,3.57-2.55,3.57-1.6,0-2.55-.952-2.55-3.74v-9.18c0-2.822.986-3.74,2.55-3.74,1.6,0,2.55.918,2.55,3.74v1.428h5.78V-17.17c0-5.916-3.162-8.84-8.33-8.84s-8.33,2.924-8.33,8.84v8.84c0,5.916,2.72,8.84,7.072,8.84a5.7,5.7,0,0,0,5.372-3.06V0h4.216V-13.77ZM133.79,0h12.716V-4.93h-7v-5.61h6.324v-4.93H139.5v-5.1h7V-25.5H133.79Zm36.176-25.5h-4.658V-3.842L161.67-25.5h-8.364V0H158V-21.964L161.6,0h8.364Zm6.12,4.93h4.148V0h5.78V-20.57h4.148V-25.5H176.086Zm42.3,9.69v2.72c0,2.788-.952,3.74-2.55,3.74s-2.55-.952-2.55-3.74v-9.18c0-2.822.986-3.74,2.55-3.74,1.6,0,2.55.918,2.55,3.74v2.38h5.78v-2.21c0-5.916-3.162-8.84-8.33-8.84s-8.33,2.924-8.33,8.84v8.84c0,5.916,3.162,8.84,8.33,8.84s8.33-2.924,8.33-8.84v-2.55ZM229.6,0h5.576l.612-4.59h4.658L241.06,0H246.6L242.59-25.5h-8.976Zm6.834-9.35,1.7-12.478L239.8-9.35ZM252.552,0h5.712V-12.546L262.854,0h6.358l-4.93-11.8a6.07,6.07,0,0,0,4.284-6.12v-.952c0-4.318-3.128-6.63-7.514-6.63h-8.5Zm7.718-20.74c1.6,0,2.584.748,2.584,2.822v.51c0,2.278-.986,3.2-2.584,3.2h-2.006V-20.74ZM275.332,0h12.716V-4.93h-7v-5.61h6.324v-4.93h-6.324v-5.1h7V-25.5H275.332Z" transform="translate(-18971.5 10677.037)" fill="#030d4e"/>
    <g id="Group_1163512" data-name="Group 1163512" transform="translate(-18919.5 10436.937)">
      <path id="Subtraction_2" data-name="Subtraction 2" d="M33.741,107.971a27.985,27.985,0,0,0,4.887,15.59,37.628,37.628,0,0,0,13.031,12.1,34.608,34.608,0,0,0,17.452,4.654,37.219,37.219,0,0,0,18.383-4.654,36.055,36.055,0,0,0,13.147-12.1,28.466,28.466,0,0,0,4.77-15.59V0h33.275v108.67a60.915,60.915,0,0,1-9.308,33.158,64.075,64.075,0,0,1-25.248,23.037,74.955,74.955,0,0,1-35.021,8.261,74.26,74.26,0,0,1-34.9-8.261A63.43,63.43,0,0,1,9.191,141.827,61.49,61.49,0,0,1,0,108.669V0H33.741Z" transform="translate(0 9.32)" fill="#030d4e"/>
      <path id="Path_1623150" data-name="Path 1623150" d="M-79.469,5913.445s-39.2-16.568-63.008,5.834-18.669,67.908-1.867,83.077,54.374,12.6,54.374,12.6Z" transform="translate(241.585 -5884.672)" fill="#fff"/>
      <path id="Path_1623148" data-name="Path 1623148" d="M138.977-64.538q-5.864,4.817-18.639,9.634a78.335,78.335,0,0,1-27.854,4.817Q68.4-50.088,50.6-60.559A70.851,70.851,0,0,1,23.374-88.727a81.347,81.347,0,0,1-9.424-38.849q0-23.246,9.424-41.466a69.551,69.551,0,0,1,26.388-28.377q16.963-10.157,39.163-10.157a85.835,85.835,0,0,1,25.969,3.77,90.461,90.461,0,0,1,20.943,9.424L123.9-165.691q-16.545-12.566-33.927-12.566a40.4,40.4,0,0,0-21.99,6.492,47,47,0,0,0-16.335,17.7,51.226,51.226,0,0,0-6.073,24.817q0,14.869,5.654,26.074A42,42,0,0,0,67.354-85.69q10.471,6.283,24.5,6.283a53.476,53.476,0,0,0,20.314-3.665,44.667,44.667,0,0,0,14.241-8.691Z" transform="translate(45.462 207.576)" fill="#030d4e"/>
      <ellipse id="Ellipse_53828" data-name="Ellipse 53828" cx="34.573" cy="34.573" rx="34.573" ry="34.573" transform="translate(104.496 44.14)" fill="#f5a01b"/>
      <path id="Path_1623030" data-name="Path 1623030" d="M238.2,610.267h15.1l3.492-9.6,7.51,19.109,7.593-19.109,3.409,9.6h12.528" transform="translate(-124.144 -530.784)" fill="none" stroke="#030d4e" stroke-linecap="round" stroke-width="3"/>
    </g>
    <path id="Path_1671043" data-name="Path 1671043" d="M7.648,2.192h4.287L8.381-6.931,11.751-15H7.716L4.851-6.817V-15H1V2.192H4.851V-6.014ZM13.653-15V-3.195c0,3.828,2.086,5.731,5.5,5.731s5.5-1.9,5.5-5.731V-15h-3.9V-3.08c0,1.7-.6,2.292-1.6,2.292s-1.6-.6-1.6-2.292V-15ZM27.98,2.192h3.851V-6.266l3.095,8.458h4.287L35.888-5.762a4.092,4.092,0,0,0,2.888-4.126v-.642c0-2.911-2.109-4.47-5.066-4.47H27.98Zm5.2-13.983c1.077,0,1.742.5,1.742,1.9v.344c0,1.536-.665,2.155-1.742,2.155H31.831v-4.4Zm8.55,13.983h3.851V-6.266l3.095,8.458h4.287L49.642-5.762A4.092,4.092,0,0,0,52.53-9.888v-.642c0-2.911-2.109-4.47-5.066-4.47H41.734Zm5.2-13.983c1.077,0,1.742.5,1.742,1.9v.344c0,1.536-.665,2.155-1.742,2.155H45.585v-4.4ZM59.384,2.192V-15h-3.9V2.192Zm16.5,0h4.287L76.622-6.931,79.991-15H75.957L73.092-6.817V-15H69.241V2.192h3.851V-6.014ZM81.894-15V-3.195c0,3.828,2.086,5.731,5.5,5.731s5.5-1.9,5.5-5.731V-15H89V-3.08c0,1.7-.6,2.292-1.6,2.292s-1.6-.6-1.6-2.292V-15ZM96.221,2.192h3.851V-6.266l3.095,8.458h4.287l-3.324-7.954a4.092,4.092,0,0,0,2.888-4.126v-.642c0-2.911-2.109-4.47-5.066-4.47H96.221Zm5.2-13.983c1.077,0,1.742.5,1.742,1.9v.344c0,1.536-.665,2.155-1.742,2.155h-1.352v-4.4Zm8.55,13.983h3.851V-6.266l3.095,8.458h4.287l-3.324-7.954a4.092,4.092,0,0,0,2.888-4.126v-.642c0-2.911-2.109-4.47-5.066-4.47h-5.731Zm5.2-13.983c1.077,0,1.742.5,1.742,1.9v.344c0,1.536-.665,2.155-1.742,2.155h-1.352v-4.4ZM127.625,2.192V-15h-3.9V2.192Zm16.642,0h3.713V-5.579c0-2.842-2.5-3.92-5.226-3.92-2.751,0-5.433,1.169-5.433,4.218h3.668a1.394,1.394,0,0,1,1.582-1.536c.894,0,1.513.413,1.513,1.169,0,2.178-7.106.046-7.106,4.791,0,2.246,1.834,3.278,3.645,3.278a3.745,3.745,0,0,0,3.645-2.04Zm-3.484-3.415c0-1.215,2.063-.986,3.37-1.673v.688a1.925,1.925,0,0,1-2.109,2.017C141.355-.192,140.782-.536,140.782-1.223Zm14.35-2.957c0-1.49.619-2.223,1.719-2.223,1.123,0,1.719.734,1.719,2.223V2.192h3.9V-5.12c0-2.934-1.742-4.378-4.08-4.378a3.739,3.739,0,0,0-3.37,1.857V-9.269h-3.782V2.192h3.9Zm18.682,6.372H177.6V-15h-3.9v7.06A4.233,4.233,0,0,0,170.375-9.5c-3.049,0-5.158,2.338-5.158,5.96s2.109,5.96,5.158,5.96a4.214,4.214,0,0,0,3.438-1.7Zm-2.453-8.3A2.354,2.354,0,0,1,173.7-3.539a2.354,2.354,0,0,1-2.338,2.567A2.359,2.359,0,0,1,169-3.539,2.359,2.359,0,0,1,171.361-6.106Zm28.241,8.3h3.438V-15h-6.1l-1.7,12.928L193.527-15h-6.075V2.192h3.324v-15.2l2.453,15.2h3.943l2.43-15.06Zm5.845,0h3.759L209.619-.9h3.14l.413,3.095h3.736L214.2-15h-6.052Zm4.607-6.3,1.146-8.413,1.123,8.413Zm13.158,6.3V-15h-3.9V2.192Zm2.521-13.868h2.8V2.192h3.9V-11.676h2.8V-15h-9.49ZM246.318-1.132h-4.676V-15h-3.9V2.192h8.573Zm1.49,3.324h3.759L251.98-.9h3.14l.413,3.095h3.736L256.565-15h-6.052Zm4.607-6.3,1.146-8.413,1.123,8.413ZM272.908-15h-3.14V-.4L267.315-15h-5.639V2.192h3.163V-12.616l2.43,14.808h5.639Zm8.825,0h-5.387V2.192h5.387c3.484,0,5.616-1.926,5.616-5.845v-5.5C287.35-13.074,285.218-15,281.734-15Zm0,13.868h-1.49V-11.676h1.49c1.077,0,1.719.6,1.719,2.407v5.731C283.453-1.728,282.811-1.132,281.734-1.132Z" transform="translate(-18970.801 10711)" fill="#f5a01b"/>
  </g>
</svg>
